<svg width="24" height="24" viewBox="0 0 24 24" fill="none" xmlns="http://www.w3.org/2000/svg">
<path d="M12 2.08875C12.4418 2.08875 12.8 2.44692 12.8 2.88875V19.1744L16.4745 15.4849C16.7863 15.1719 17.2929 15.1708 17.6059 15.4826C17.919 15.7944 17.92 16.3009 17.6082 16.614L12.5668 21.6758C12.4167 21.8265 12.2127 21.9113 12 21.9113C11.7873 21.9113 11.5833 21.8265 11.4332 21.6758L6.3918 16.614C6.08002 16.3009 6.08104 15.7944 6.39409 15.4826C6.70714 15.1708 7.21367 15.1719 7.52546 15.4849L11.2 19.1744V2.88875C11.2 2.44692 11.5582 2.08875 12 2.08875Z" fill="black"/>
</svg>
