<svg width="24" height="24" viewBox="0 0 24 24" fill="none" xmlns="http://www.w3.org/2000/svg">
<path fill-rule="evenodd" clip-rule="evenodd" d="M10.9487 2.00107H13.0518C13.5067 2.00106 13.8878 2.00105 14.201 2.02237C14.5275 2.04458 14.838 2.09258 15.1399 2.21728C15.8379 2.50561 16.3929 3.05892 16.6825 3.75612C16.8078 4.05783 16.8561 4.36823 16.8784 4.6942C16.8863 4.80932 16.8913 4.93362 16.8944 5.06738H20.1994C20.6412 5.06738 20.9994 5.42555 20.9994 5.86738C20.9994 6.30921 20.6412 6.66738 20.1994 6.66738H18.9496V17.9633C18.9496 18.5069 18.9496 18.963 18.9191 19.3361C18.8872 19.7265 18.8179 20.0963 18.6388 20.4468C18.3651 20.9826 17.9283 21.4171 17.3926 21.6893C17.0421 21.8674 16.6723 21.9365 16.2813 21.9684C15.9068 21.999 15.4487 21.999 14.902 21.9989H9.09898C8.55217 21.999 8.09395 21.999 7.71925 21.9684C7.3281 21.9366 6.95809 21.8675 6.60743 21.6893C6.07127 21.4169 5.63533 20.982 5.36187 20.4468C5.18284 20.0964 5.11345 19.7267 5.08146 19.3362C5.05084 18.9624 5.05085 18.5054 5.05086 17.9605L5.05086 6.66738H3.80107C3.35924 6.66738 3.00107 6.30921 3.00107 5.86738C3.00107 5.42555 3.35924 5.06738 3.80107 5.06738H7.10604C7.10918 4.93365 7.11415 4.80937 7.12203 4.69427C7.14432 4.36832 7.19254 4.05789 7.31788 3.75612C7.60741 3.05904 8.16222 2.50565 8.86033 2.21728C9.16222 2.09257 9.47288 2.04457 9.79936 2.02236C10.1126 2.00105 10.4938 2.00106 10.9487 2.00107ZM8.70648 5.06738H15.294C15.2914 4.97017 15.2876 4.88316 15.2821 4.80355C15.2654 4.55936 15.2356 4.44379 15.2049 4.36984C15.0784 4.06525 14.8355 3.82269 14.529 3.69607C14.4542 3.66516 14.3376 3.63536 14.0924 3.61867C13.84 3.6015 13.5136 3.60107 13.0251 3.60107H10.9753C10.4869 3.60107 10.1604 3.6015 9.90795 3.61867C9.66259 3.63537 9.546 3.66517 9.4712 3.69607C9.16479 3.82265 8.92205 4.06514 8.79549 4.36984C8.7648 4.44373 8.735 4.55926 8.71829 4.80348C8.71285 4.88311 8.70908 4.97014 8.70648 5.06738ZM6.65086 6.66738V17.9282C6.65086 18.5139 6.65149 18.9049 6.67612 19.2055C6.69998 19.4968 6.7423 19.632 6.78668 19.7189C6.90626 19.9529 7.09703 20.1434 7.33225 20.2629C7.42007 20.3075 7.55651 20.3499 7.84918 20.3737C8.15108 20.3983 8.54359 20.3989 9.13073 20.3989H14.8702C15.4573 20.3989 15.8496 20.3983 16.1512 20.3737C16.4436 20.3499 16.5799 20.3076 16.6678 20.2629C16.9036 20.1431 17.0947 19.9524 17.214 19.7189C17.2584 19.6321 17.3006 19.497 17.3245 19.2057C17.3491 18.905 17.3496 18.514 17.3496 17.9282V6.66738H6.65086Z" fill="black"/>
</svg>
