<svg width="24" height="24" viewBox="0 0 24 24" fill="none" xmlns="http://www.w3.org/2000/svg">
<path d="M11 6.94444C11 7.74219 10.3284 8.38889 9.5 8.38889C8.67157 8.38889 8 7.74219 8 6.94444C8 6.1467 8.67157 5.5 9.5 5.5C10.3284 5.5 11 6.1467 11 6.94444Z" fill="black"/>
<path d="M11 17.0556C11 17.8533 10.3284 18.5 9.5 18.5C8.67157 18.5 8 17.8533 8 17.0556C8 16.2578 8.67157 15.6111 9.5 15.6111C10.3284 15.6111 11 16.2578 11 17.0556Z" fill="black"/>
<path d="M11 12C11 12.7977 10.3284 13.4444 9.5 13.4444C8.67157 13.4444 8 12.7977 8 12C8 11.2023 8.67157 10.5556 9.5 10.5556C10.3284 10.5556 11 11.2023 11 12Z" fill="black"/>
<path d="M16 6.94444C16 7.74219 15.3284 8.38889 14.5 8.38889C13.6716 8.38889 13 7.74219 13 6.94444C13 6.1467 13.6716 5.5 14.5 5.5C15.3284 5.5 16 6.1467 16 6.94444Z" fill="black"/>
<path d="M16 17.0556C16 17.8533 15.3284 18.5 14.5 18.5C13.6716 18.5 13 17.8533 13 17.0556C13 16.2578 13.6716 15.6111 14.5 15.6111C15.3284 15.6111 16 16.2578 16 17.0556Z" fill="black"/>
<path d="M16 12C16 12.7977 15.3284 13.4444 14.5 13.4444C13.6716 13.4444 13 12.7977 13 12C13 11.2023 13.6716 10.5556 14.5 10.5556C15.3284 10.5556 16 11.2023 16 12Z" fill="black"/>
</svg>
