<svg width="24" height="24" viewBox="0 0 24 24" fill="none" xmlns="http://www.w3.org/2000/svg">
<path d="M12 21.9113C11.5582 21.9113 11.2 21.5531 11.2 21.1113L11.2 4.82565L7.52546 8.5151C7.21367 8.82815 6.70714 8.82917 6.39409 8.51738C6.08104 8.2056 6.08001 7.69907 6.3918 7.38601L11.4332 2.32421C11.5833 2.17348 11.7873 2.08875 12 2.08875C12.2127 2.08875 12.4167 2.17348 12.5668 2.32421L17.6082 7.38602C17.92 7.69907 17.919 8.2056 17.6059 8.51738C17.2929 8.82917 16.7863 8.82815 16.4745 8.5151L12.8 4.82565L12.8 21.1113C12.8 21.5531 12.4418 21.9113 12 21.9113Z" fill="black"/>
</svg>
