<svg width="24" height="24" viewBox="0 0 24 24" fill="none" xmlns="http://www.w3.org/2000/svg">
<path fill-rule="evenodd" clip-rule="evenodd" d="M18.1298 2.00537C18.3419 2.00537 18.5454 2.08966 18.6954 2.23969L21.7603 5.30464C22.0727 5.61706 22.0727 6.12358 21.7603 6.436L12.5657 15.6309C12.4157 15.7809 12.2122 15.8652 12 15.8652H8.93513C8.4933 15.8652 8.13513 15.507 8.13513 15.0652V12.0002C8.13513 11.7881 8.21941 11.5846 8.36943 11.4345L14.4988 5.30498L17.5641 2.23969C17.7141 2.08966 17.9176 2.00537 18.1298 2.00537ZM15.0649 7.00171L9.73513 12.3316V14.2652H11.6686L16.9984 8.93527L15.0649 7.00171ZM18.1298 7.80389L16.1962 5.87032L18.1298 3.93676L20.0633 5.87032L18.1298 7.80389Z" fill="black"/>
<path d="M6.04255 4.04867L8.93532 4.04867C9.37715 4.04867 9.73532 4.40684 9.73532 4.84867C9.73532 5.2905 9.37715 5.64867 8.93532 5.64867H6.07477C5.48942 5.64867 5.09839 5.64929 4.79768 5.67385C4.50627 5.69766 4.37089 5.73989 4.28398 5.78418C4.05025 5.90327 3.86018 6.09339 3.74088 6.32754C3.69657 6.41451 3.65435 6.54983 3.63055 6.84108C3.60599 7.14167 3.60537 7.53259 3.60537 8.11797V17.9258C3.60537 18.5112 3.60599 18.9021 3.63055 19.2027C3.65435 19.4939 3.69657 19.6292 3.74088 19.7162C3.86017 19.9503 4.05022 20.1404 4.28398 20.2595C4.37091 20.3038 4.50629 20.3461 4.7977 20.3699C5.0984 20.3944 5.48943 20.3951 6.07477 20.3951H15.8824C16.4677 20.3951 16.8585 20.3944 17.159 20.3699C17.4501 20.3461 17.5853 20.3039 17.6723 20.2595C17.9066 20.1402 18.0971 19.9498 18.2161 19.7162C18.2604 19.6293 18.3025 19.4941 18.3263 19.2028C18.3508 18.9022 18.3514 18.5113 18.3514 17.9258V15.0652C18.3514 14.6233 18.7096 14.2652 19.1514 14.2652C19.5932 14.2652 19.9514 14.6233 19.9514 15.0652V17.9608C19.9514 18.5043 19.9514 18.96 19.921 19.3328C19.8892 19.723 19.8201 20.0924 19.6417 20.4426C19.3689 20.978 18.9334 21.4127 18.3987 21.6851C18.0487 21.8635 17.6795 21.9327 17.2894 21.9646C16.9158 21.9951 16.4591 21.9951 15.9142 21.9951H6.04303C5.49807 21.9951 5.04113 21.9951 4.66741 21.9646C4.27717 21.9327 3.90773 21.8636 3.55758 21.6851C3.02241 21.4125 2.58777 20.9774 2.31526 20.4426C2.13688 20.0925 2.06775 19.7232 2.03587 19.333C2.00535 18.9595 2.00536 18.5028 2.00537 17.9581V8.08573C2.00536 7.54099 2.00535 7.0843 2.03587 6.71079C2.06775 6.3206 2.13688 5.95129 2.31526 5.60117C2.58775 5.06638 3.02238 4.63128 3.55758 4.35858C3.90774 4.18016 4.2772 4.11104 4.66743 4.07917C5.04103 4.04865 5.49781 4.04866 6.04255 4.04867Z" fill="black"/>
</svg>
